<svg version="1.1" id="Layer_1" xmlns="http://www.w3.org/2000/svg" xmlns:xlink="http://www.w3.org/1999/xlink" x="0px" y="0px"
	 width="100%" viewBox="0 0 512 512" enable-background="new 0 0 512 512" xml:space="preserve">
<path fill="#FFFFFF" opacity="1.000000" stroke="none" 
	d="
M235.000000,513.000000 
	C157.034698,513.000000 79.069405,513.000000 1.052052,513.000000 
	C1.052052,342.443970 1.052052,171.887939 1.052052,1.000000 
	C78.687782,1.000000 156.376038,1.000000 234.317108,1.360472 
	C223.699829,3.319013 212.743454,4.481208 201.978912,6.612319 
	C183.586945,10.253477 165.976089,16.564898 149.079880,24.597584 
	C140.399551,28.724337 132.308334,34.090279 123.596420,38.954029 
	C120.999268,40.341408 118.678162,41.555622 116.526245,43.018665 
	C97.922630,55.666904 81.078346,70.352264 66.300606,87.309418 
	C61.146660,93.223465 56.669769,99.727554 51.593170,106.135910 
	C50.194969,107.912170 49.060867,109.497169 47.983711,111.119957 
	C37.957390,126.225143 29.289713,142.081421 22.614096,158.934341 
	C19.643948,166.432632 17.619942,174.305679 14.991070,182.351242 
	C7.864693,205.619385 4.388742,229.021759 5.102748,253.471909 
	C5.025642,262.417450 4.978846,270.899261 5.050457,279.380127 
	C5.057971,280.270050 5.764234,281.154083 6.092742,282.490204 
	C7.024817,290.838409 7.848425,298.761536 9.026553,306.631561 
	C12.527048,330.015167 20.255085,352.101349 30.749338,373.154419 
	C39.761761,391.234772 50.752506,408.052734 63.840084,423.618103 
	C75.637466,437.648926 88.713318,450.264893 103.112007,461.346954 
	C118.648941,473.305115 135.429520,483.412079 153.550003,491.326141 
	C176.116119,501.181824 199.315704,508.316467 223.831100,511.037231 
	C227.580505,511.453308 231.278320,512.334106 235.000000,513.000000 
z"/>
<path fill="#FFFFFF" opacity="1.000000" stroke="none" 
	d="
M279.000000,0.999998 
	C356.965302,1.000000 434.930634,1.000000 512.947998,1.000000 
	C512.947998,171.556061 512.947998,342.112122 512.947998,513.000000 
	C435.312225,513.000000 357.623962,513.000000 279.625488,512.598755 
	C288.951233,510.804901 298.642334,509.713654 308.213196,507.964600 
	C340.580536,502.049500 370.169434,489.157196 397.400574,470.959808 
	C417.164612,457.752289 434.634521,441.929565 450.071106,423.687622 
	C463.009125,408.398285 473.830505,391.823364 482.860535,374.124207 
	C492.575500,355.082672 499.719421,334.940430 503.842590,313.930176 
	C505.901062,303.440613 506.560547,292.676514 508.060852,281.661072 
	C508.457184,272.193939 508.645447,263.102356 508.905670,253.546234 
	C508.323944,242.457031 508.106598,231.782013 506.889191,221.222321 
	C505.759033,211.419525 503.561340,201.739792 501.888977,191.615204 
	C497.964874,179.321045 494.326050,167.288254 489.875427,155.563644 
	C487.297943,148.773636 483.413513,142.479736 480.061371,135.599030 
	C477.007660,129.834045 474.217499,124.304184 470.971954,119.055916 
	C462.189697,104.854248 452.483185,91.350075 440.061890,79.615669 
	C439.230042,78.236855 438.605347,77.031052 437.653931,76.198647 
	C427.411926,67.237625 417.552704,57.758110 406.703522,49.597290 
	C397.792236,42.894173 387.687988,37.776955 377.953735,31.641987 
	C369.098602,27.192034 360.555786,22.687351 351.674530,18.997200 
	C331.996338,10.820877 311.588623,5.232883 290.329895,2.956874 
	C286.527039,2.549729 282.775330,1.664490 279.000000,0.999998 
z"/>
<path fill="#000001" opacity="1.000000" stroke="none" 
	d="
M507.852814,282.036591 
	C506.560547,292.676514 505.901062,303.440613 503.842590,313.930176 
	C499.719421,334.940430 492.575500,355.082672 482.860535,374.124207 
	C473.830505,391.823364 463.009125,408.398285 450.071106,423.687622 
	C434.634521,441.929565 417.164612,457.752289 397.400574,470.959808 
	C370.169434,489.157196 340.580536,502.049500 308.213196,507.964600 
	C298.642334,509.713654 288.951233,510.804901 279.157623,512.598755 
	C264.645782,513.000000 250.291550,513.000000 235.468658,513.000000 
	C231.278320,512.334106 227.580505,511.453308 223.831100,511.037231 
	C199.315704,508.316467 176.116119,501.181824 153.550003,491.326141 
	C135.429520,483.412079 118.648941,473.305115 103.112007,461.346954 
	C88.713318,450.264893 75.637466,437.648926 63.840084,423.618103 
	C50.752506,408.052734 39.761761,391.234772 30.749338,373.154419 
	C20.255085,352.101349 12.527048,330.015167 9.026553,306.631561 
	C7.848425,298.761536 7.024817,290.838409 6.389998,282.762238 
	C8.891260,294.054108 11.041699,305.523346 13.174485,317.373993 
	C18.130116,331.168457 23.103399,344.581482 28.084555,358.357422 
	C35.352901,371.161102 42.613377,383.601868 49.951889,396.382874 
	C60.069145,411.345215 71.388748,424.855530 84.833817,436.927917 
	C91.143616,442.453369 96.904999,448.296692 103.570641,452.802155 
	C116.105362,461.274628 129.162094,468.974792 142.207108,477.273743 
	C147.212891,479.804535 151.964447,482.169464 156.821808,484.292358 
	C186.080917,497.079712 216.760498,503.732391 248.600632,504.933868 
	C271.536621,505.799377 294.215851,503.381989 316.508698,497.923767 
	C335.829559,493.193176 354.539215,486.721497 372.351196,476.948181 
	C379.180359,473.199585 386.095886,470.090668 392.042908,465.676819 
	C405.056000,456.018402 417.577606,445.697784 430.603394,435.480103 
	C443.724670,423.098907 455.425934,409.939606 465.327515,394.834290 
	C472.306152,382.766693 478.996124,370.876434 485.846649,358.651855 
	C490.274353,346.875946 494.541504,335.434387 498.907410,323.612793 
	C500.338776,318.177917 501.892151,313.168945 502.954712,308.057922 
	C504.750916,299.418152 506.236572,290.713776 507.852814,282.036591 
z"/>
<path fill="#51A5D0" opacity="1.000000" stroke="none" 
	d="
M278.531342,0.999998 
	C282.775330,1.664490 286.527039,2.549729 290.329895,2.956874 
	C311.588623,5.232883 331.996338,10.820877 351.674530,18.997200 
	C360.555786,22.687351 369.098602,27.192034 377.525574,31.654999 
	C374.563660,31.390911 371.891785,30.480366 369.172333,30.304264 
	C366.847443,30.153713 363.190948,28.066692 362.633240,33.037327 
	C361.189301,32.685272 360.093170,32.350815 358.679443,31.865753 
	C345.279175,26.987808 332.324371,21.860712 319.083954,17.626785 
	C299.200714,11.268666 278.464813,9.755885 257.796997,9.253692 
	C246.125916,8.970103 234.372116,10.744155 222.703308,12.025984 
	C204.822250,13.990232 187.539581,18.683506 170.831833,25.201456 
	C160.354813,29.288698 150.264847,34.368084 139.987061,38.599815 
	C138.924713,37.466351 137.772400,36.007267 136.847626,36.139492 
	C133.948578,36.553989 131.150604,37.631809 128.282150,38.322685 
	C126.874039,38.661835 125.396843,38.714123 123.950905,38.896233 
	C132.308334,34.090279 140.399551,28.724337 149.079880,24.597584 
	C165.976089,16.564898 183.586945,10.253477 201.978912,6.612319 
	C212.743454,4.481208 223.699829,3.319013 234.784943,1.360472 
	C249.354233,1.000000 263.708466,1.000000 278.531342,0.999998 
z"/>
<path fill="#4D9DCF" opacity="1.000000" stroke="none" 
	d="
M123.596420,38.954029 
	C125.396843,38.714123 126.874039,38.661835 128.282150,38.322685 
	C131.150604,37.631809 133.948578,36.553989 136.847626,36.139492 
	C137.772400,36.007267 138.924713,37.466351 139.784256,38.872494 
	C135.721832,42.015430 131.848038,44.483177 127.626823,47.001884 
	C109.043259,58.065796 93.048203,71.826286 78.426140,87.215904 
	C75.294136,90.512314 72.761040,94.377762 69.656616,98.133659 
	C66.915771,100.872978 64.470352,103.459709 61.850410,105.718338 
	C60.047009,105.001457 58.393864,104.228760 56.795910,104.329697 
	C55.130772,104.434891 53.518864,105.382759 51.883678,105.962189 
	C56.669769,99.727554 61.146660,93.223465 66.300606,87.309418 
	C81.078346,70.352264 97.922630,55.666904 116.526245,43.018665 
	C118.678162,41.555622 120.999268,40.341408 123.596420,38.954029 
z"/>
<path fill="#4892CD" opacity="1.000000" stroke="none" 
	d="
M51.593170,106.135910 
	C53.518864,105.382759 55.130772,104.434891 56.795910,104.329697 
	C58.393864,104.228760 60.047009,105.001457 61.701942,106.026413 
	C60.491951,108.611839 59.185532,110.520401 58.031387,112.516983 
	C51.008617,124.665855 44.020515,136.834763 36.867519,149.314255 
	C35.419289,152.466843 34.001530,155.253433 32.853310,158.146973 
	C29.840292,165.739807 26.944767,173.379272 23.659859,180.851471 
	C20.600359,181.138092 17.883427,181.573364 15.166494,182.008636 
	C17.619942,174.305679 19.643948,166.432632 22.614096,158.934341 
	C29.289713,142.081421 37.957390,126.225143 47.983711,111.119957 
	C49.060867,109.497169 50.194969,107.912170 51.593170,106.135910 
z"/>
<path fill="#4388CB" opacity="1.000000" stroke="none" 
	d="
M14.991070,182.351242 
	C17.883427,181.573364 20.600359,181.138092 23.619526,181.234955 
	C21.955370,190.510101 19.988985,199.253128 17.856476,208.360138 
	C16.431597,223.821716 15.172842,238.919296 13.500446,254.012878 
	C10.446895,253.675201 7.806984,253.341568 5.167074,253.007935 
	C4.388742,229.021759 7.864693,205.619385 14.991070,182.351242 
z"/>
<path fill="#3E7DC9" opacity="1.000000" stroke="none" 
	d="
M5.102748,253.471924 
	C7.806984,253.341568 10.446895,253.675201 13.523973,254.476730 
	C13.989233,259.627869 14.017325,264.311127 14.032062,269.421448 
	C15.756510,287.862762 18.698324,305.651978 23.607826,322.965820 
	C20.415207,320.078278 17.585133,317.208923 13.192139,316.992554 
	C11.041699,305.523346 8.891260,294.054108 6.443564,282.312866 
	C5.764234,281.154083 5.057971,280.270050 5.050457,279.380127 
	C4.978846,270.899261 5.025642,262.417450 5.102748,253.471924 
z"/>
<path fill="#4FA0CF" opacity="1.000000" stroke="none" 
	d="
M362.981049,33.054924 
	C363.190948,28.066692 366.847443,30.153713 369.172333,30.304264 
	C371.891785,30.480366 374.563660,31.390911 377.684357,31.969828 
	C387.687988,37.776955 397.792236,42.894173 406.703522,49.597290 
	C417.552704,57.758110 427.411926,67.237625 437.653931,76.198647 
	C438.605347,77.031052 439.230042,78.236855 439.699463,79.595680 
	C437.011414,78.595100 434.690338,77.141373 432.231903,75.977783 
	C429.910156,74.878899 427.750671,74.855591 426.684875,77.886353 
	C418.588165,71.172516 410.789948,64.609116 402.684570,57.893822 
	C397.383972,54.233704 392.544952,50.475391 387.361389,47.275219 
	C379.358459,42.334496 371.119751,37.775711 362.981049,33.054924 
z"/>
<path fill="#4B98CE" opacity="1.000000" stroke="none" 
	d="
M426.983429,78.036789 
	C427.750671,74.855591 429.910156,74.878899 432.231903,75.977783 
	C434.690338,77.141373 437.011414,78.595100 439.754913,79.942070 
	C452.483185,91.350075 462.189697,104.854248 470.971954,119.055916 
	C474.217499,124.304184 477.007660,129.834045 479.663788,135.569885 
	C476.545135,135.936432 473.768158,135.968552 470.717346,135.802917 
	C462.299042,123.732849 454.154633,111.860535 445.864807,99.687599 
	C439.474030,92.270256 433.228729,85.153526 426.983429,78.036789 
z"/>
<path fill="#3E7DC9" opacity="1.000000" stroke="none" 
	d="
M508.060852,281.661072 
	C506.236572,290.713776 504.750916,299.418152 502.954712,308.057922 
	C501.892151,313.168945 500.338776,318.177917 498.520355,323.674164 
	C495.350800,324.407776 492.667053,324.699982 489.986023,324.586395 
	C490.379669,322.413727 490.790436,320.651031 491.158203,318.879395 
	C493.433258,307.918427 495.698730,296.955475 497.981445,285.568115 
	C498.689697,275.434357 499.383881,265.725647 500.467957,256.012085 
	C503.516510,255.341736 506.175140,254.676239 508.833740,254.010742 
	C508.645447,263.102356 508.457184,272.193939 508.060852,281.661072 
z"/>
<path fill="#4388CB" opacity="1.000000" stroke="none" 
	d="
M508.905701,253.546234 
	C506.175140,254.676239 503.516510,255.341736 500.443481,255.542038 
	C499.671906,245.381897 499.314697,235.686951 498.958099,225.576355 
	C498.454254,221.731934 498.041260,218.286667 497.426971,214.877686 
	C495.991211,206.910477 494.458832,198.960693 493.311279,190.857773 
	C496.382568,191.143082 499.108154,191.574478 501.833710,192.005859 
	C503.561340,201.739792 505.759033,211.419525 506.889191,221.222321 
	C508.106598,231.782013 508.323944,242.457031 508.905701,253.546234 
z"/>
<path fill="#4790CC" opacity="1.000000" stroke="none" 
	d="
M501.888977,191.615204 
	C499.108154,191.574478 496.382568,191.143082 493.039703,190.616989 
	C488.623566,180.012421 484.824738,169.502563 481.010437,158.615570 
	C480.299103,156.424713 479.700653,154.566101 478.889404,152.805542 
	C476.299194,147.184341 473.629913,141.599548 470.991211,136.000671 
	C473.768158,135.968552 476.545135,135.936432 479.719666,135.933441 
	C483.413513,142.479736 487.297943,148.773636 489.875427,155.563644 
	C494.326050,167.288254 497.964874,179.321045 501.888977,191.615204 
z"/>
<path fill="#2952A7" opacity="1.000000" stroke="none" 
	d="
M371.998352,476.995972 
	C354.539215,486.721497 335.829559,493.193176 316.508698,497.923767 
	C294.215851,503.381989 271.536621,505.799377 248.600632,504.933868 
	C216.760498,503.732391 186.080917,497.079712 156.821808,484.292358 
	C151.964447,482.169464 147.212891,479.804535 142.498566,476.978821 
	C147.388840,475.937866 152.193008,475.469543 157.363541,475.004944 
	C158.459854,475.024445 159.189819,475.040253 160.098572,475.359558 
	C169.380127,479.118195 178.357101,482.963776 187.612259,485.945953 
	C205.960373,491.858063 224.943481,494.909851 244.128006,495.877533 
	C270.935699,497.229767 297.456635,494.555084 323.253754,486.870514 
	C333.355927,483.861206 343.110474,479.684998 353.373993,475.994873 
	C355.483154,475.303955 357.241669,474.658356 359.090332,474.405701 
	C360.962494,475.199097 362.730896,475.681427 364.529785,475.980103 
	C367.007263,476.391388 369.507721,476.663971 371.998352,476.995972 
z"/>
<path fill="#2D5AAE" opacity="1.000000" stroke="none" 
	d="
M372.351196,476.948181 
	C369.507721,476.663971 367.007263,476.391388 364.529785,475.980103 
	C362.730896,475.681427 360.962494,475.199097 359.309509,474.133514 
	C366.716156,469.610840 374.135834,465.994385 381.225677,461.818054 
	C386.711426,458.586609 391.784332,454.654297 397.386353,450.988342 
	C404.817383,445.625763 411.902802,440.308441 419.405121,434.984772 
	C423.314667,435.201508 426.807312,435.424561 430.299957,435.647644 
	C417.577606,445.697784 405.056000,456.018402 392.042908,465.676819 
	C386.095886,470.090668 379.180359,473.199585 372.351196,476.948181 
z"/>
<path fill="#2D5AAE" opacity="1.000000" stroke="none" 
	d="
M156.997162,475.001221 
	C152.193008,475.469543 147.388840,475.937866 142.293213,476.701111 
	C129.162094,468.974792 116.105362,461.274628 103.570641,452.802155 
	C96.904999,448.296692 91.143616,442.453369 85.083511,436.538971 
	C88.465942,435.573059 91.738930,435.282074 95.312469,435.140106 
	C97.655899,436.941528 99.640831,438.672455 101.752998,440.230957 
	C107.134499,444.201874 112.572830,448.095734 118.143326,452.321594 
	C121.146049,454.553925 123.875587,456.695129 126.863297,458.377899 
	C136.858154,464.007355 146.945343,469.472900 156.997162,475.001221 
z"/>
<path fill="#3164B6" opacity="1.000000" stroke="none" 
	d="
M430.603394,435.480072 
	C426.807312,435.424561 423.314667,435.201508 419.550507,434.687256 
	C421.528564,431.935760 423.778137,429.475464 426.323456,426.866516 
	C435.084534,417.148682 443.549835,407.579468 452.257233,397.854492 
	C452.999176,397.132080 453.498993,396.565460 454.431061,395.999268 
	C458.255157,395.670410 461.646973,395.341034 465.038818,395.011658 
	C455.425934,409.939606 443.724670,423.098907 430.603394,435.480072 
z"/>
<path fill="#3164B6" opacity="1.000000" stroke="none" 
	d="
M95.011917,434.991119 
	C91.738930,435.282074 88.465942,435.573059 84.943253,436.252991 
	C71.388748,424.855530 60.069145,411.345215 50.366997,396.377136 
	C54.149403,396.680176 57.594742,397.329224 61.308193,398.109924 
	C62.368744,398.841553 63.161182,399.441559 64.000854,400.384460 
	C72.357117,409.822357 80.666153,418.917389 89.121567,428.308472 
	C91.182610,430.733429 93.097260,432.862274 95.011917,434.991119 
z"/>
<path fill="#366CBD" opacity="1.000000" stroke="none" 
	d="
M61.040081,397.978271 
	C57.594742,397.329224 54.149403,396.680176 50.288960,396.036896 
	C42.613377,383.601868 35.352901,371.161102 28.482815,358.413055 
	C31.902052,358.407684 34.930901,358.709564 38.095642,359.301880 
	C38.829746,360.724670 39.427948,361.856995 40.152824,363.313354 
	C43.602467,369.368439 46.843651,375.148956 50.271164,380.816772 
	C53.765408,386.594971 57.442860,392.262329 61.040081,397.978271 
z"/>
<path fill="#366CBD" opacity="1.000000" stroke="none" 
	d="
M465.327515,394.834290 
	C461.646973,395.341034 458.255157,395.670410 454.563171,395.684448 
	C461.169983,383.910583 468.076904,372.452087 475.098206,360.736633 
	C475.488312,359.990204 475.764038,359.500793 476.483948,359.008453 
	C479.847473,358.999084 482.766785,358.992645 485.686096,358.986206 
	C478.996124,370.876434 472.306152,382.766693 465.327515,394.834290 
z"/>
<path fill="#3A75C4" opacity="1.000000" stroke="none" 
	d="
M37.959747,359.011475 
	C34.930901,358.709564 31.902052,358.407684 28.474945,358.050171 
	C23.103399,344.581482 18.130116,331.168457 13.174484,317.373993 
	C17.585133,317.208923 20.415207,320.078278 23.654968,323.308990 
	C24.380190,324.793243 24.710022,325.891876 25.169510,327.333099 
	C29.519360,338.120941 33.739552,348.566193 37.959747,359.011475 
z"/>
<path fill="#3A75C4" opacity="1.000000" stroke="none" 
	d="
M485.846649,358.651855 
	C482.766785,358.992645 479.847473,358.999084 476.612030,358.676636 
	C480.209717,348.238129 484.123535,338.128479 488.282654,327.826874 
	C489.013123,326.754059 489.498199,325.873138 489.983276,324.992218 
	C492.667053,324.699982 495.350800,324.407776 498.421631,324.054199 
	C494.541504,335.434387 490.274353,346.875946 485.846649,358.651855 
z"/>
<path fill="#60C1F5" opacity="1.000000" stroke="none" 
	d="
M127.974258,46.950920 
	C131.848038,44.483177 135.721832,42.015430 139.798416,39.275002 
	C150.264847,34.368084 160.354813,29.288698 170.831833,25.201456 
	C187.539581,18.683506 204.822250,13.990232 222.703308,12.025984 
	C234.372116,10.744155 246.125916,8.970103 257.796997,9.253692 
	C278.464813,9.755885 299.200714,11.268666 319.083954,17.626785 
	C332.324371,21.860712 345.279175,26.987808 358.609436,32.237221 
	C356.455170,33.506126 354.074921,34.801128 351.647339,34.896919 
	C344.390778,35.183262 337.114136,34.919285 329.849060,35.061066 
	C328.190277,35.093437 326.546478,35.893501 324.505707,36.252033 
	C322.829773,35.830620 321.536438,35.523609 320.259125,35.160370 
	C286.278839,25.497089 251.942902,23.476387 217.081024,29.738091 
	C193.493164,33.974823 171.286072,41.974957 149.895752,52.395939 
	C148.038055,51.364914 146.302444,50.227470 144.496918,50.102821 
	C140.261719,49.810432 135.991867,49.941269 131.738419,50.024052 
	C129.507782,50.067467 127.761520,49.778744 127.974258,46.950920 
z"/>
<path fill="#5EBDF5" opacity="1.000000" stroke="none" 
	d="
M324.895782,36.340233 
	C326.546478,35.893501 328.190277,35.093437 329.849060,35.061066 
	C337.114136,34.919285 344.390778,35.183262 351.647339,34.896919 
	C354.074921,34.801128 356.455170,33.506126 358.927063,32.387829 
	C360.093170,32.350815 361.189301,32.685272 362.633240,33.037331 
	C371.119751,37.775711 379.358459,42.334496 387.361389,47.275219 
	C392.544952,50.475391 397.383972,54.233704 402.639130,58.262108 
	C401.487793,59.728275 400.165100,61.267258 398.643188,61.499287 
	C395.264984,62.014317 391.745758,61.604885 388.367889,62.121120 
	C386.813782,62.358635 385.456848,63.886459 383.689819,64.738953 
	C365.289124,52.297722 345.456238,43.567581 324.895782,36.340233 
z"/>
<path fill="#5CB9F4" opacity="1.000000" stroke="none" 
	d="
M127.626823,47.001884 
	C127.761520,49.778744 129.507782,50.067467 131.738419,50.024052 
	C135.991867,49.941269 140.261719,49.810432 144.496918,50.102821 
	C146.302444,50.227470 148.038055,51.364914 149.586731,52.576508 
	C140.407394,58.866291 130.916611,63.954170 122.619034,70.544395 
	C112.013687,78.967522 102.370827,88.602486 92.058075,97.834320 
	C90.632599,98.997932 89.462219,100.042419 87.920090,100.925430 
	C85.405998,100.175964 83.295929,99.360550 81.114075,99.050850 
	C77.417259,98.526115 73.675133,98.320709 69.952042,97.981071 
	C72.761040,94.377762 75.294136,90.512314 78.426140,87.215904 
	C93.048203,71.826286 109.043259,58.065796 127.626823,47.001884 
z"/>
<path fill="#57B1F3" opacity="1.000000" stroke="none" 
	d="
M69.656624,98.133659 
	C73.675133,98.320709 77.417259,98.526115 81.114075,99.050850 
	C83.295929,99.360550 85.405998,100.175964 87.753403,101.230301 
	C74.603004,116.710571 63.766232,133.448547 53.704971,151.029877 
	C47.826595,150.343597 42.423717,149.670288 37.020844,148.996994 
	C44.020515,136.834763 51.008617,124.665855 58.031387,112.516983 
	C59.185532,110.520401 60.491951,108.611839 61.876457,106.354523 
	C64.470352,103.459709 66.915771,100.872978 69.656624,98.133659 
z"/>
<path fill="#53A7F1" opacity="1.000000" stroke="none" 
	d="
M36.867523,149.314255 
	C42.423717,149.670288 47.826595,150.343597 53.637184,151.369568 
	C53.658447,152.799286 53.271988,153.876328 52.601322,155.156097 
	C51.565941,156.620163 50.540215,157.793854 50.105358,159.156158 
	C44.799221,175.779053 39.579853,192.429642 33.853737,209.051849 
	C28.253859,208.685806 23.138229,208.340973 18.022600,207.996140 
	C19.988985,199.253128 21.955370,190.510101 23.962090,181.383621 
	C26.944767,173.379272 29.840292,165.739807 32.853310,158.146973 
	C34.001530,155.253433 35.419289,152.466843 36.867523,149.314255 
z"/>
<path fill="#4F9DF0" opacity="1.000000" stroke="none" 
	d="
M17.856476,208.360138 
	C23.138229,208.340973 28.253859,208.685806 33.818867,209.488129 
	C33.244537,218.628571 32.220825,227.311523 31.113316,236.444778 
	C31.002657,248.597931 30.975794,260.300781 30.519321,272.002197 
	C24.741613,270.998657 19.393513,269.996552 14.045416,268.994385 
	C14.017325,264.311127 13.989233,259.627869 13.937613,254.480743 
	C15.172842,238.919296 16.431597,223.821716 17.856476,208.360138 
z"/>
<path fill="#4993EE" opacity="1.000000" stroke="none" 
	d="
M14.032059,269.421448 
	C19.393513,269.996552 24.741613,270.998657 30.603943,272.423828 
	C31.512476,277.434662 31.332083,282.161987 32.405930,286.584808 
	C36.015095,301.449615 40.071102,316.205963 43.545494,331.002502 
	C41.036572,330.607635 38.923569,330.278839 36.843121,329.806671 
	C32.898838,328.911407 28.973221,327.933868 25.039852,326.990540 
	C24.710022,325.891876 24.380190,324.793243 24.003216,323.351440 
	C18.698324,305.651978 15.756510,287.862762 14.032059,269.421448 
z"/>
<path fill="#5BB8F4" opacity="1.000000" stroke="none" 
	d="
M384.010529,64.829193 
	C385.456848,63.886459 386.813782,62.358635 388.367889,62.121120 
	C391.745758,61.604885 395.264984,62.014317 398.643188,61.499287 
	C400.165100,61.267258 401.487793,59.728275 402.946289,58.414005 
	C410.789948,64.609116 418.588165,71.172516 426.684875,77.886353 
	C433.228729,85.153526 439.474030,92.270256 445.691101,100.023331 
	C442.519440,104.813049 437.994843,102.196632 434.183228,103.051758 
	C432.378235,103.456703 430.696716,104.412094 428.655151,104.963379 
	C423.762054,99.889526 419.539062,94.553162 414.506653,90.139671 
	C404.578461,81.432404 394.201752,73.236549 384.010529,64.829193 
z"/>
<path fill="#57B0F2" opacity="1.000000" stroke="none" 
	d="
M428.959290,105.118111 
	C430.696716,104.412094 432.378235,103.456703 434.183228,103.051758 
	C437.994843,102.196632 442.519440,104.813049 445.836517,100.323944 
	C454.154633,111.860535 462.299042,123.732849 470.717346,135.802917 
	C473.629913,141.599548 476.299194,147.184341 478.889404,152.805542 
	C479.700653,154.566101 480.299103,156.424713 480.627380,158.780609 
	C475.165558,160.216736 470.071289,161.110687 464.715759,161.774567 
	C457.504486,149.265625 450.554443,136.986740 443.451294,124.389572 
	C438.518524,117.753563 433.738892,111.435837 428.959290,105.118111 
z"/>
<path fill="#4C9AEF" opacity="1.000000" stroke="none" 
	d="
M498.957489,225.992004 
	C499.314697,235.686951 499.671906,245.381897 500.053589,255.546906 
	C499.383881,265.725647 498.689697,275.434357 497.518005,285.570587 
	C491.782501,286.002563 486.524445,286.006989 481.232025,285.605682 
	C483.547394,268.855438 484.503998,252.465317 482.852875,235.551239 
	C482.735870,232.781281 482.574402,230.448471 482.911285,228.084473 
	C488.592285,227.366211 493.774872,226.679108 498.957489,225.992004 
z"/>
<path fill="#4891EE" opacity="1.000000" stroke="none" 
	d="
M481.266418,286.011414 
	C486.524445,286.006989 491.782501,286.002563 497.503967,285.995667 
	C495.698730,296.955475 493.433258,307.918427 491.158203,318.879395 
	C490.790436,320.651031 490.379669,322.413727 489.986023,324.586395 
	C489.498199,325.873138 489.013123,326.754059 487.850433,327.820190 
	C484.377594,328.603363 480.763733,328.323120 478.969849,329.995331 
	C475.917267,332.840912 472.759888,333.157684 469.175171,332.644928 
	C473.230225,316.857880 477.248322,301.434631 481.266418,286.011414 
z"/>
<path fill="#53A5F1" opacity="1.000000" stroke="none" 
	d="
M498.958099,225.576355 
	C493.774872,226.679108 488.592285,227.366211 482.774719,227.733612 
	C481.574127,223.470505 481.431854,219.409058 480.370667,215.603836 
	C475.377563,197.698929 470.132294,179.864334 464.977020,162.004654 
	C470.071289,161.110687 475.165558,160.216736 480.642883,159.157745 
	C484.824738,169.502563 488.623566,180.012421 492.693970,190.763077 
	C494.458832,198.960693 495.991211,206.910477 497.426971,214.877686 
	C498.041260,218.286667 498.454254,221.731934 498.958099,225.576355 
z"/>
<path fill="#3164C8" opacity="1.000000" stroke="none" 
	d="
M353.023346,476.040283 
	C343.110474,479.684998 333.355927,483.861206 323.253754,486.870514 
	C297.456635,494.555084 270.935699,497.229767 244.128006,495.877533 
	C224.943481,494.909851 205.960373,491.858063 187.612259,485.945953 
	C178.357101,482.963776 169.380127,479.118195 160.573792,475.338959 
	C165.913956,474.669434 170.957703,474.323944 176.392700,473.992432 
	C178.686493,474.573547 180.611252,475.075745 182.488266,475.717590 
	C207.007828,484.101776 232.316711,487.656799 258.132751,487.935547 
	C262.750000,487.985413 267.400116,487.537170 271.991272,486.966553 
	C283.945526,485.480865 295.977112,484.324127 307.784302,482.037048 
	C317.993378,480.059448 327.936554,476.709137 338.283539,474.268707 
	C343.387665,475.061279 348.205505,475.550781 353.023346,476.040283 
z"/>
<path fill="#3469CE" opacity="1.000000" stroke="none" 
	d="
M353.373993,475.994904 
	C348.205505,475.550781 343.387665,475.061279 338.495453,473.991638 
	C343.567444,471.243286 348.869965,469.379456 353.824341,466.837097 
	C361.678436,462.806671 369.299744,458.322601 377.368103,453.987976 
	C380.143372,452.629578 382.570099,451.313629 385.360840,450.156677 
	C389.496887,450.554993 393.268829,450.794312 397.040771,451.033630 
	C391.784332,454.654297 386.711426,458.586609 381.225677,461.818054 
	C374.135834,465.994385 366.716156,469.610840 359.219360,473.740601 
	C357.241669,474.658356 355.483154,475.303955 353.373993,475.994904 
z"/>
<path fill="#3469CE" opacity="1.000000" stroke="none" 
	d="
M176.001465,473.978485 
	C170.957703,474.323944 165.913956,474.669434 160.394989,475.035492 
	C159.189819,475.040253 158.459854,475.024445 157.363525,475.004913 
	C146.945343,469.472900 136.858154,464.007355 126.863297,458.377899 
	C123.875587,456.695129 121.146049,454.553925 118.424042,452.026428 
	C122.366676,451.283600 126.183502,451.137085 130.317932,451.131165 
	C138.593979,455.596344 146.453339,460.117889 154.540802,464.185974 
	C161.560226,467.716797 168.837921,470.734161 176.001465,473.978485 
z"/>
<path fill="#376FD3" opacity="1.000000" stroke="none" 
	d="
M397.386383,450.988342 
	C393.268829,450.794312 389.496887,450.554993 385.555145,449.884216 
	C394.921783,442.300537 404.458221,435.148285 414.387451,427.990540 
	C418.529388,427.661743 422.278534,427.338409 426.027649,427.015137 
	C423.778137,429.475464 421.528564,431.935760 419.133606,434.693604 
	C411.902802,440.308441 404.817383,445.625763 397.386383,450.988342 
z"/>
<path fill="#376FD3" opacity="1.000000" stroke="none" 
	d="
M130.000336,450.990570 
	C126.183502,451.137085 122.366676,451.283600 118.269135,451.725250 
	C112.572830,448.095734 107.134499,444.201874 101.752998,440.230957 
	C99.640831,438.672455 97.655899,436.941528 95.312469,435.140106 
	C93.097260,432.862274 91.182610,430.733429 89.572624,428.303955 
	C93.587288,428.333740 97.297279,428.664124 101.307617,429.142639 
	C107.734123,433.862885 113.860291,438.434967 120.137558,443.310089 
	C123.525887,446.072296 126.763107,448.531433 130.000336,450.990570 
z"/>
<path fill="#3F7FE0" opacity="1.000000" stroke="none" 
	d="
M474.983826,360.993591 
	C468.076904,372.452087 461.169983,383.910583 454.130920,395.683960 
	C453.498993,396.565460 452.999176,397.132080 451.840454,397.859802 
	C447.787689,398.347260 444.393860,398.673615 441.146271,398.696686 
	C446.195618,391.262665 451.098663,384.131927 456.275085,376.805481 
	C457.683929,374.781555 458.979797,373.032288 459.925415,371.110657 
	C463.021973,364.817871 467.710724,361.013245 474.983826,360.993591 
z"/>
<path fill="#3A76D9" opacity="1.000000" stroke="none" 
	d="
M441.000000,399.000000 
	C444.393860,398.673615 447.787689,398.347260 451.598328,398.015564 
	C443.549835,407.579468 435.084534,417.148682 426.323425,426.866516 
	C422.278534,427.338409 418.529388,427.661743 414.530975,427.693756 
	C416.190216,425.269135 418.098785,423.135834 420.306030,420.857422 
	C427.403168,413.474884 434.201569,406.237427 441.000000,399.000000 
z"/>
<path fill="#3F7FE0" opacity="1.000000" stroke="none" 
	d="
M61.308197,398.109894 
	C57.442860,392.262329 53.765408,386.594971 50.271164,380.816772 
	C46.843651,375.148956 43.602467,369.368439 40.577637,363.316620 
	C46.787994,362.071808 50.426044,365.060425 53.324944,369.833313 
	C57.060326,375.983398 61.094467,381.952026 65.147202,388.302551 
	C67.529945,392.066010 69.765434,395.525665 71.777176,399.256653 
	C69.020157,399.699158 66.486893,399.870361 63.953621,400.041565 
	C63.161182,399.441559 62.368744,398.841553 61.308197,398.109894 
z"/>
<path fill="#3A76D9" opacity="1.000000" stroke="none" 
	d="
M64.000854,400.384460 
	C66.486893,399.870361 69.020157,399.699158 72.077072,399.406250 
	C76.438828,403.396088 80.233353,407.549408 84.125465,411.609161 
	C89.715469,417.440002 95.376541,423.202728 101.007278,428.994507 
	C97.297279,428.664124 93.587288,428.333740 89.426239,428.007874 
	C80.666153,418.917389 72.357117,409.822357 64.000854,400.384460 
z"/>
<path fill="#4589EB" opacity="1.000000" stroke="none" 
	d="
M64.999939,387.998779 
	C61.094467,381.952026 57.060326,375.983398 53.324944,369.833313 
	C50.426044,365.060425 46.787994,362.071808 40.450966,362.992584 
	C39.427948,361.856995 38.829746,360.724670 38.095642,359.301910 
	C33.739552,348.566193 29.519360,338.120941 25.169508,327.333099 
	C28.973221,327.933868 32.898838,328.911407 36.843121,329.806671 
	C38.923569,330.278839 41.036572,330.607635 43.697639,331.187866 
	C44.441681,331.646545 44.676544,331.859406 44.984055,332.386902 
	C45.586517,334.308350 46.159382,335.860016 46.754921,337.402954 
	C53.479904,354.825806 63.054661,370.684937 73.241653,386.479309 
	C70.340240,387.251373 67.670097,387.625092 64.999939,387.998779 
z"/>
<path fill="#4589EB" opacity="1.000000" stroke="none" 
	d="
M475.098206,360.736603 
	C467.710724,361.013245 463.021973,364.817871 459.925415,371.110657 
	C458.979797,373.032288 457.683929,374.781555 455.817780,376.804993 
	C452.326721,376.978516 449.566315,376.956848 446.894043,376.594421 
	C451.287109,368.499451 455.592072,360.745270 460.118530,352.714844 
	C463.272766,345.962006 466.205475,339.485352 469.138214,333.008728 
	C472.759888,333.157684 475.917267,332.840912 478.969849,329.995331 
	C480.763733,328.323120 484.377594,328.603363 487.605103,328.012115 
	C484.123535,338.128479 480.209717,348.238129 476.167847,358.679565 
	C475.764038,359.500793 475.488312,359.990204 475.098206,360.736603 
z"/>
<path fill="#FBFDFE" opacity="1.000000" stroke="none" 
	d="
M428.655151,104.963379 
	C433.738892,111.435837 438.518524,117.753563 443.011536,124.576599 
	C438.697571,125.388237 434.651062,125.547180 430.651825,126.068687 
	C428.893402,126.297981 427.231201,127.265427 425.277649,127.641327 
	C422.401947,124.241287 419.773956,121.097641 417.003296,117.646286 
	C407.299438,108.113762 397.738220,98.888954 387.984192,89.400764 
	C376.219025,81.707283 364.646729,74.277199 352.850891,66.589554 
	C325.889984,52.196400 297.260864,44.771454 267.194946,43.212303 
	C240.381668,41.821823 214.078110,45.435265 188.738113,54.439724 
	C179.194153,57.831127 170.140778,62.603165 160.513031,66.826202 
	C148.072845,74.924263 135.983383,82.941925 123.587646,91.086975 
	C120.233063,93.824562 117.184753,96.434761 113.659752,99.030838 
	C106.226433,98.582870 99.269798,98.149033 92.313171,97.715195 
	C102.370827,88.602486 112.013687,78.967522 122.619034,70.544395 
	C130.916611,63.954170 140.407394,58.866291 149.677048,52.930328 
	C171.286072,41.974957 193.493164,33.974823 217.081024,29.738091 
	C251.942902,23.476387 286.278839,25.497089 320.259125,35.160370 
	C321.536438,35.523609 322.829773,35.830620 324.505707,36.252037 
	C345.456238,43.567581 365.289124,52.297722 383.689819,64.738953 
	C394.201752,73.236549 404.578461,81.432404 414.506653,90.139671 
	C419.539062,94.553162 423.762054,99.889526 428.655151,104.963379 
z"/>
<path fill="#F8FCFD" opacity="1.000000" stroke="none" 
	d="
M92.058075,97.834320 
	C99.269798,98.149033 106.226433,98.582870 113.497856,99.326599 
	C110.527542,103.084785 107.242424,106.533066 103.661125,110.133163 
	C97.561035,117.517494 91.757133,124.750008 85.673363,132.165649 
	C81.329048,138.900681 77.264610,145.452560 72.984352,152.266174 
	C71.847908,154.025360 70.927284,155.522797 69.716339,156.719833 
	C63.912525,155.930740 58.399029,155.442047 52.885529,154.953369 
	C53.271988,153.876328 53.658447,152.799286 54.112686,151.382553 
	C63.766232,133.448547 74.603004,116.710571 88.125137,101.391769 
	C89.462219,100.042419 90.632599,98.997932 92.058075,97.834320 
z"/>
<path fill="#F4F9FC" opacity="1.000000" stroke="none" 
	d="
M52.601326,155.156097 
	C58.399029,155.442047 63.912525,155.930740 69.680298,157.080017 
	C67.906776,162.146393 65.878975,166.552170 63.564148,171.173691 
	C61.471462,176.850006 59.665810,182.310547 57.612289,188.049149 
	C55.743122,194.498306 54.121815,200.669418 52.327179,207.159988 
	C51.103119,214.319626 50.052383,221.159821 48.786667,228.346832 
	C48.280457,231.459259 47.989220,234.224884 47.251011,236.992737 
	C41.601730,236.661484 36.399422,236.327988 31.197113,235.994476 
	C32.220825,227.311523 33.244537,218.628571 34.303116,209.509338 
	C39.579853,192.429642 44.799221,175.779053 50.105358,159.156158 
	C50.540215,157.793854 51.565941,156.620163 52.601326,155.156097 
z"/>
<path fill="#EEF6FA" opacity="1.000000" stroke="none" 
	d="
M31.113316,236.444778 
	C36.399422,236.327988 41.601730,236.661484 47.317196,237.413208 
	C47.610298,242.555283 47.390244,247.279144 47.107746,252.463745 
	C47.418964,259.950317 47.792622,266.976135 48.119686,274.405731 
	C49.011803,279.872498 49.950516,284.935486 50.876778,290.430267 
	C51.630676,294.909058 52.397018,298.956085 53.198059,303.377075 
	C55.366173,310.340973 57.499588,316.930908 59.683826,323.873352 
	C60.434772,326.482574 61.134899,328.739349 61.431892,331.060059 
	C55.674171,331.420380 50.319584,331.716736 44.964996,332.013092 
	C44.676544,331.859406 44.441681,331.646545 44.108257,331.189209 
	C40.071102,316.205963 36.015095,301.449615 32.405930,286.584808 
	C31.332083,282.161987 31.512476,277.434662 31.033552,272.425232 
	C30.975794,260.300781 31.002657,248.597931 31.113316,236.444778 
z"/>
<path fill="#F5FAFC" opacity="1.000000" stroke="none" 
	d="
M425.525330,127.897728 
	C427.231201,127.265427 428.893402,126.297981 430.651825,126.068687 
	C434.651062,125.547180 438.697571,125.388237 443.164642,124.894897 
	C450.554443,136.986740 457.504486,149.265625 464.715759,161.774567 
	C470.132294,179.864334 475.377563,197.698929 480.370667,215.603836 
	C481.431854,219.409058 481.574127,223.470505 482.276367,227.764771 
	C482.574402,230.448471 482.735870,232.781281 482.446411,235.566895 
	C476.732697,236.009476 471.469971,235.999268 466.105774,235.581970 
	C465.457642,231.074081 464.910950,226.973251 464.345459,222.431046 
	C462.476654,213.328232 460.626678,204.666809 458.742188,195.636566 
	C455.535156,186.737000 452.362610,178.206238 449.130676,169.326111 
	C445.035309,161.320801 440.999298,153.664841 436.882324,145.673859 
	C433.042664,139.525146 429.283997,133.711441 425.525330,127.897728 
z"/>
<path fill="#EDF5FA" opacity="1.000000" stroke="none" 
	d="
M466.207214,235.989044 
	C471.469971,235.999268 476.732697,236.009476 482.401917,236.004028 
	C484.503998,252.465317 483.547394,268.855438 481.232025,285.605652 
	C477.248322,301.434631 473.230225,316.857880 469.175171,332.644928 
	C466.205475,339.485352 463.272766,345.962006 459.712463,352.658905 
	C456.001862,352.586121 452.909271,352.368317 449.839050,351.975525 
	C447.501801,351.676483 445.192932,351.155212 442.925995,350.383087 
	C445.792175,343.210083 448.603821,336.386810 451.689911,329.314056 
	C454.098846,322.757721 456.233337,316.450897 458.606567,309.859253 
	C460.220154,303.383179 461.595001,297.191864 463.108185,290.621460 
	C464.140411,282.828918 465.034332,275.415436 466.015320,267.573059 
	C466.158020,259.408020 466.213715,251.671860 466.312012,243.495789 
	C466.305481,240.700287 466.256348,238.344666 466.207214,235.989044 
z"/>
<path fill="#3D77EA" opacity="1.000000" stroke="none" 
	d="
M130.317932,451.131165 
	C126.763107,448.531433 123.525887,446.072296 120.599014,443.307373 
	C124.320335,442.512329 127.731308,442.023010 131.469757,441.683350 
	C142.978363,447.914978 153.801651,454.805878 165.402954,459.938049 
	C213.979050,481.426971 264.306274,485.316345 315.447998,471.421814 
	C332.778992,466.713196 349.137848,458.426544 366.197449,452.104645 
	C369.975830,452.966339 373.497711,453.498383 377.019531,454.030426 
	C369.299744,458.322601 361.678436,462.806671 353.824341,466.837097 
	C348.869965,469.379456 343.567444,471.243286 338.209167,473.688538 
	C327.936554,476.709137 317.993378,480.059448 307.784302,482.037048 
	C295.977112,484.324127 283.945526,485.480865 271.991272,486.966553 
	C267.400116,487.537170 262.750000,487.985413 258.132751,487.935547 
	C232.316711,487.656799 207.007828,484.101776 182.488266,475.717590 
	C180.611252,475.075745 178.686493,474.573547 176.392700,473.992432 
	C168.837921,470.734161 161.560226,467.716797 154.540802,464.185974 
	C146.453339,460.117889 138.593979,455.596344 130.317932,451.131165 
z"/>
<path fill="#3E7EEB" opacity="1.000000" stroke="none" 
	d="
M377.368103,453.987976 
	C373.497711,453.498383 369.975830,452.966339 366.403839,451.846161 
	C370.651001,448.537506 374.948303,445.817017 379.577148,443.026642 
	C390.184235,435.108368 400.459778,427.260010 410.973022,419.781860 
	C414.142914,420.435608 417.075104,420.719086 420.007324,421.002533 
	C418.098785,423.135834 416.190216,425.269135 414.138184,427.699219 
	C404.458221,435.148285 394.921783,442.300537 385.191101,449.725220 
	C382.570099,451.313629 380.143372,452.629578 377.368103,453.987976 
z"/>
<path fill="#407FEB" opacity="1.000000" stroke="none" 
	d="
M131.142273,441.533722 
	C127.731308,442.023010 124.320335,442.512329 120.447914,443.004333 
	C113.860291,438.434967 107.734123,433.862885 101.307617,429.142639 
	C95.376541,423.202728 89.715469,417.440002 84.125465,411.609161 
	C80.233353,407.549408 76.438828,403.396088 72.300819,399.134949 
	C69.765434,395.525665 67.529945,392.066010 65.147202,388.302551 
	C67.670097,387.625092 70.340240,387.251373 73.485901,386.741760 
	C89.159119,406.764465 106.603661,424.599823 127.933777,438.818054 
	C129.131577,439.857697 130.136917,440.695709 131.142273,441.533722 
z"/>
<path fill="#4282EB" opacity="1.000000" stroke="none" 
	d="
M420.306030,420.857422 
	C417.075104,420.719086 414.142914,420.435608 411.123169,419.512085 
	C413.989380,415.956848 417.210724,413.263733 419.848206,410.086029 
	C428.944061,399.127045 437.836212,387.998932 446.805939,376.935211 
	C449.566315,376.956848 452.326721,376.978516 455.544403,377.000671 
	C451.098663,384.131927 446.195618,391.262665 441.146240,398.696655 
	C434.201569,406.237427 427.403168,413.474884 420.306030,420.857422 
z"/>
<path fill="#E8F2F8" opacity="1.000000" stroke="none" 
	d="
M127.741318,438.616455 
	C106.603661,424.599823 89.159119,406.764465 73.717163,386.343353 
	C63.054661,370.684937 53.479904,354.825806 46.754921,337.402954 
	C46.159382,335.860016 45.586517,334.308350 44.984055,332.386902 
	C50.319584,331.716736 55.674171,331.420380 61.591370,331.379639 
	C64.688065,336.555542 67.222145,341.475861 69.810181,346.743713 
	C74.139000,354.442200 78.413864,361.793091 82.784760,369.481628 
	C90.935486,379.852325 98.990196,389.885406 107.153328,400.242249 
	C109.116776,402.153625 110.933205,403.789215 112.833740,405.320404 
	C119.842979,410.967651 126.880035,416.580383 134.072891,422.494873 
	C140.488449,426.935730 146.737747,431.087830 152.873291,435.616516 
	C151.245407,436.328735 149.737137,436.918945 148.216110,436.953827 
	C142.977264,437.074005 137.729309,436.876556 132.495178,437.074463 
	C130.893417,437.135040 129.324997,438.077728 127.741318,438.616455 
z"/>
<path fill="#E6F1F8" opacity="1.000000" stroke="none" 
	d="
M446.894043,376.594421 
	C437.836212,387.998932 428.944061,399.127045 419.848206,410.086029 
	C417.210724,413.263733 413.989380,415.956848 410.885498,419.141846 
	C400.459778,427.260010 390.184235,435.108368 379.089203,442.995819 
	C371.624603,443.022766 364.978790,442.951874 358.334625,443.026276 
	C355.526215,443.057709 353.795502,442.208740 354.272217,438.862549 
	C356.998596,437.089844 359.457428,435.531738 362.119141,433.922791 
	C362.588593,433.760284 362.796448,433.580658 363.252441,433.196411 
	C364.664795,432.379913 365.770233,431.700104 367.088776,430.954590 
	C367.581757,430.762604 367.798676,430.566681 368.273682,430.151123 
	C370.697357,428.657227 372.799896,427.313232 375.116638,425.910278 
	C375.610291,425.721619 375.820862,425.519989 376.258728,425.131348 
	C377.335876,424.333160 378.116913,423.650055 379.058441,422.944672 
	C379.572418,422.802490 379.704620,422.560333 379.623413,422.097931 
	C379.631317,421.999939 379.634796,421.803314 379.959229,421.812164 
	C381.150757,421.220917 382.017883,420.620850 383.101562,419.948700 
	C383.600983,419.738495 383.815582,419.530090 384.254639,419.142212 
	C385.326233,418.362213 386.105133,417.691528 387.100830,416.948853 
	C387.600677,416.738678 387.815491,416.530182 388.286560,416.119324 
	C394.086243,411.021484 399.561310,406.055664 405.340088,400.942932 
	C413.490662,391.215454 421.337555,381.634827 429.468597,371.881226 
	C433.507538,365.484070 437.262329,359.259918 441.258820,352.856934 
	C441.957489,352.029663 442.414490,351.381256 442.871460,350.732819 
	C445.192932,351.155212 447.501801,351.676483 449.839050,351.975525 
	C452.909271,352.368317 456.001862,352.586121 459.490906,352.935120 
	C455.592072,360.745270 451.287109,368.499451 446.894043,376.594421 
z"/>
<path fill="#59B4F3" opacity="1.000000" stroke="none" 
	d="
M103.957321,109.981354 
	C107.242424,106.533066 110.527542,103.084785 113.974548,99.340729 
	C117.184753,96.434761 120.233063,93.824562 124.065094,91.100723 
	C210.787033,90.991386 296.725281,91.003983 382.663483,90.944221 
	C384.501617,90.942947 386.339203,90.109436 388.177032,89.664154 
	C397.738220,98.888954 407.299438,108.113762 416.556946,117.660881 
	C413.467865,117.655632 410.682892,117.047501 407.896973,117.042870 
	C369.948730,116.979874 332.000153,116.956284 294.052399,117.103737 
	C291.627686,117.113159 289.208710,118.607704 286.527191,119.178238 
	C275.024292,98.688210 246.012711,96.498962 231.973297,111.968414 
	C229.440872,111.539215 227.322540,111.037148 225.203598,111.034508 
	C187.057205,110.987091 148.910706,111.017395 110.764359,110.956444 
	C108.494835,110.952820 106.226311,110.320908 103.957321,109.981354 
z"/>
<path fill="#5BB8F4" opacity="1.000000" stroke="none" 
	d="
M387.984192,89.400772 
	C386.339203,90.109436 384.501617,90.942947 382.663483,90.944221 
	C296.725281,91.003983 210.787033,90.991386 124.371361,90.973335 
	C135.983383,82.941925 148.072845,74.924263 160.791580,67.167297 
	C162.713013,67.618614 164.005096,67.975426 165.297348,67.976006 
	C226.356216,68.003418 287.415100,68.008331 348.473969,67.951721 
	C350.007782,67.950294 351.540955,67.231392 353.074432,66.847107 
	C364.646729,74.277199 376.219025,81.707283 387.984192,89.400772 
z"/>
<path fill="#56AFF3" opacity="1.000000" stroke="none" 
	d="
M286.787079,119.411377 
	C289.208710,118.607704 291.627686,117.113159 294.052399,117.103737 
	C332.000153,116.956284 369.948730,116.979874 407.896973,117.042870 
	C410.682892,117.047501 413.467865,117.655632 416.699646,117.968597 
	C419.773956,121.097641 422.401947,124.241287 425.277649,127.641342 
	C429.283997,133.711441 433.042664,139.525146 436.416565,145.671173 
	C387.024414,146.002518 338.017120,146.001556 288.993408,145.574463 
	C291.063110,136.329727 290.510162,127.735680 286.787079,119.411377 
z"/>
<path fill="#5DBCF5" opacity="1.000000" stroke="none" 
	d="
M352.850891,66.589554 
	C351.540955,67.231392 350.007782,67.950294 348.473969,67.951721 
	C287.415100,68.008331 226.356216,68.003418 165.297348,67.976006 
	C164.005096,67.975426 162.713013,67.618614 161.142303,67.086899 
	C170.140778,62.603165 179.194153,57.831127 188.738113,54.439724 
	C214.078110,45.435265 240.381668,41.821823 267.194946,43.212303 
	C297.260864,44.771454 325.889984,52.196400 352.850891,66.589554 
z"/>
<path fill="#54AAF2" opacity="1.000000" stroke="none" 
	d="
M289.009796,146.000595 
	C338.017120,146.001556 387.024414,146.002518 436.497498,146.006180 
	C440.999298,153.664841 445.035309,161.320801 448.852356,169.677338 
	C447.177948,170.585266 445.722443,170.974030 444.266907,170.974182 
	C317.461670,170.988052 190.656418,170.971939 63.851181,170.957932 
	C65.878975,166.552170 67.906776,162.146393 69.970612,157.380432 
	C70.927284,155.522797 71.847908,154.025360 73.436295,152.264969 
	C125.338623,152.003952 176.573181,152.005875 228.016266,152.282471 
	C236.669861,165.179123 249.537537,170.926453 263.825867,167.982742 
	C276.241119,165.424896 284.242889,157.485764 289.009796,146.000595 
z"/>
<path fill="#56ADF2" opacity="1.000000" stroke="none" 
	d="
M227.807755,152.007797 
	C176.573181,152.005875 125.338623,152.003952 73.652115,152.003235 
	C77.264610,145.452560 81.329048,138.900681 86.145729,132.171570 
	C132.445145,132.039642 177.992340,132.084930 223.498657,132.538208 
	C224.907776,139.300064 226.357773,145.653931 227.807755,152.007797 
z"/>
<path fill="#57B1F3" opacity="1.000000" stroke="none" 
	d="
M223.539520,132.130219 
	C177.992340,132.084930 132.445145,132.039642 86.425598,131.988434 
	C91.757133,124.750008 97.561035,117.517494 103.661133,110.133171 
	C106.226311,110.320908 108.494835,110.952820 110.764359,110.956444 
	C148.910706,111.017395 187.057205,110.987091 225.203598,111.034508 
	C227.322540,111.037148 229.440872,111.539215 231.750732,112.245102 
	C226.421478,117.989357 224.911499,125.029984 223.539520,132.130219 
z"/>
<path fill="#53A7F1" opacity="1.000000" stroke="none" 
	d="
M63.564148,171.173691 
	C190.656418,170.971939 317.461670,170.988052 444.266907,170.974182 
	C445.722443,170.974030 447.177948,170.585266 448.911743,170.026703 
	C452.362610,178.206238 455.535156,186.737000 458.290588,195.635254 
	C428.090759,196.004868 398.308136,196.006958 368.389465,195.659637 
	C368.591431,192.126160 371.682922,189.665146 369.761475,185.756256 
	C366.812683,179.757446 361.200256,176.665253 352.736084,178.068039 
	C337.394470,180.610611 322.146210,183.748474 306.769897,186.039902 
	C294.759369,187.829742 282.638153,189.423248 270.522888,189.836594 
	C252.010757,190.468170 233.458282,190.401077 215.074585,187.124161 
	C197.394958,183.972748 179.602966,181.433670 161.962753,178.085892 
	C150.972992,176.000259 146.511932,178.151108 142.570526,188.999695 
	C115.870659,188.999954 89.641983,189.024780 63.413620,188.947098 
	C61.561321,188.941620 59.711262,188.180725 57.860161,187.771088 
	C59.665810,182.310547 61.471462,176.850006 63.564148,171.173691 
z"/>
<path fill="#4E9DF0" opacity="1.000000" stroke="none" 
	d="
M47.170189,252.003006 
	C47.390244,247.279144 47.610298,242.555283 47.764168,237.410950 
	C47.989220,234.224884 48.280457,231.459259 49.255188,228.346832 
	C107.511871,228.001816 165.085052,228.003632 222.783295,228.459564 
	C223.111221,234.275146 223.314102,239.636597 223.397568,245.420349 
	C223.172913,247.895432 223.067673,249.948196 222.496124,252.000641 
	C163.743286,252.001205 105.456734,252.002106 47.170189,252.003006 
z"/>
<path fill="#50A1F0" opacity="1.000000" stroke="none" 
	d="
M222.658249,228.005447 
	C165.085052,228.003632 107.511871,228.001816 49.470161,228.000000 
	C50.052383,221.159821 51.103119,214.319626 52.838799,207.206573 
	C90.303925,206.955795 127.084114,206.989380 163.864243,206.955261 
	C165.247330,206.953964 166.629807,206.295441 168.416107,205.937256 
	C174.091492,207.015732 179.363327,208.100159 184.946411,209.424271 
	C192.802017,211.484772 200.361176,213.246857 207.886444,215.143463 
	C214.950851,216.923904 220.763275,220.240982 222.658249,228.005447 
z"/>
<path fill="#51A4F1" opacity="1.000000" stroke="none" 
	d="
M168.012558,205.943192 
	C166.629807,206.295441 165.247330,206.953964 163.864243,206.955261 
	C127.084114,206.989380 90.303925,206.955795 53.012123,206.887115 
	C54.121815,200.669418 55.743122,194.498306 57.612293,188.049133 
	C59.711262,188.180725 61.561321,188.941620 63.413620,188.947098 
	C89.641983,189.024780 115.870659,188.999954 142.700302,189.347656 
	C144.187027,197.085953 148.503250,201.095703 155.641556,202.613586 
	C159.812637,203.500488 163.891953,204.818909 168.012558,205.943192 
z"/>
<path fill="#4C99EF" opacity="1.000000" stroke="none" 
	d="
M47.107746,252.463745 
	C105.456734,252.002106 163.743286,252.001205 222.561218,252.465500 
	C222.964966,259.954865 222.837326,266.979034 222.259216,274.002441 
	C163.927933,274.001801 106.047112,274.001892 48.166283,274.001984 
	C47.792622,266.976135 47.418964,259.950317 47.107746,252.463745 
z"/>
<path fill="#468EED" opacity="1.000000" stroke="none" 
	d="
M69.756218,346.396149 
	C67.222145,341.475861 64.688065,336.555542 61.994499,331.315674 
	C61.134899,328.739349 60.434772,326.482574 59.974911,323.508026 
	C62.149624,322.526825 64.083885,322.034973 66.018555,322.033386 
	C116.307159,321.992035 166.595810,322.001587 216.974060,322.405701 
	C215.457794,330.022675 213.851929,337.236267 211.979034,344.090820 
	C210.439041,343.488098 209.166229,343.032501 207.893021,343.031433 
	C163.851517,342.994476 119.809776,342.955780 75.769035,343.144287 
	C73.760162,343.152924 71.760277,345.264191 69.756218,346.396149 
z"/>
<path fill="#4891EE" opacity="1.000000" stroke="none" 
	d="
M216.884460,322.002380 
	C166.595810,322.001587 116.307159,321.992035 66.018555,322.033386 
	C64.083885,322.034973 62.149624,322.526825 59.924088,323.155518 
	C57.499588,316.930908 55.366173,310.340973 53.654778,303.376038 
	C109.366234,303.001038 164.655670,303.001068 220.071960,303.415009 
	C219.761200,307.205688 219.323578,310.582428 218.574356,314.190430 
	C217.803345,316.948547 217.343903,319.475464 216.884460,322.002380 
z"/>
<path fill="#4A96EF" opacity="1.000000" stroke="none" 
	d="
M48.119686,274.405731 
	C106.047112,274.001892 163.927933,274.001801 222.331009,274.439178 
	C222.522873,279.918488 222.192490,284.960297 221.402100,290.001434 
	C164.257797,290.000000 107.573509,289.999237 50.889229,289.998505 
	C49.950516,284.935486 49.011803,279.872498 48.119686,274.405731 
z"/>
<path fill="#4994EE" opacity="1.000000" stroke="none" 
	d="
M50.876778,290.430267 
	C107.573509,289.999237 164.257797,290.000000 221.298645,290.395538 
	C221.085190,294.860596 220.515137,298.930847 219.945099,303.001099 
	C164.655670,303.001068 109.366234,303.001038 53.620083,303.002075 
	C52.397018,298.956085 51.630676,294.909058 50.876778,290.430267 
z"/>
<path fill="#4E9EF0" opacity="1.000000" stroke="none" 
	d="
M466.105774,235.581970 
	C466.256348,238.344666 466.305481,240.700287 465.819824,243.515305 
	C407.177155,243.982727 349.069244,243.990723 290.888794,243.535370 
	C291.198364,235.944717 289.049072,228.423141 294.504150,222.074493 
	C297.694855,222.417847 300.476257,222.962143 303.257721,222.962570 
	C356.959900,222.970612 410.662109,222.914948 464.364258,222.872421 
	C464.910950,226.973251 465.457642,231.074081 466.105774,235.581970 
z"/>
<path fill="#50A2F0" opacity="1.000000" stroke="none" 
	d="
M464.345459,222.431046 
	C410.662109,222.914948 356.959900,222.970612 303.257721,222.962570 
	C300.476257,222.962143 297.694855,222.417847 294.662109,221.781372 
	C298.586578,219.284225 302.573792,216.558868 306.980652,215.109894 
	C314.298309,212.703796 321.885590,211.117798 329.754791,209.189087 
	C338.473785,207.263397 346.751007,205.092087 355.137390,203.493423 
	C360.562653,202.459229 364.933502,200.062698 368.525482,196.009064 
	C398.308136,196.006958 428.090759,196.004868 458.325043,196.004074 
	C460.626678,204.666809 462.476654,213.328232 464.345459,222.431046 
z"/>
<path fill="#4C9AEF" opacity="1.000000" stroke="none" 
	d="
M290.961365,243.998734 
	C349.069244,243.990723 407.177155,243.982727 465.777222,243.955200 
	C466.213715,251.671860 466.158020,259.408020 465.552368,267.572388 
	C409.686066,268.000397 354.369690,267.972778 299.053589,268.085083 
	C296.423096,268.090424 293.795074,269.335815 291.098267,269.538879 
	C290.840729,261.047211 290.650848,253.020370 290.597900,244.750763 
	C290.810364,244.338257 290.885864,244.168488 290.961365,243.998734 
z"/>
<path fill="#4A96EF" opacity="1.000000" stroke="none" 
	d="
M291.165924,270.003723 
	C293.795074,269.335815 296.423096,268.090424 299.053589,268.085083 
	C354.369690,267.972778 409.686066,268.000397 465.465332,268.001282 
	C465.034332,275.415436 464.140411,282.828918 462.642029,290.621185 
	C405.422577,291.000793 348.807617,291.001617 292.103271,290.577576 
	C291.731232,283.436432 291.448578,276.720062 291.165924,270.003723 
z"/>
<path fill="#468DED" opacity="1.000000" stroke="none" 
	d="
M442.925995,350.383087 
	C442.414490,351.381256 441.957489,352.029663 441.084808,352.525757 
	C438.404663,351.582306 436.142517,350.108887 433.875458,350.101288 
	C392.568665,349.962708 351.261200,349.965729 309.954407,350.102295 
	C307.893890,350.109100 305.838287,351.599670 303.521118,352.114777 
	C301.231262,343.887848 299.200623,335.945496 297.627991,328.002075 
	C347.049561,328.000702 396.013153,327.980560 444.976562,328.066223 
	C447.123718,328.069977 449.269196,329.042358 451.415466,329.563538 
	C448.603821,336.386810 445.792175,343.210083 442.925995,350.383087 
z"/>
<path fill="#4790EE" opacity="1.000000" stroke="none" 
	d="
M451.689880,329.314056 
	C449.269196,329.042358 447.123718,328.069977 444.976562,328.066223 
	C396.013153,327.980560 347.049561,328.000702 297.560608,327.595520 
	C296.302185,323.124542 295.569122,319.059082 294.878448,314.609894 
	C294.666809,312.484955 294.412811,310.743713 294.572021,308.989716 
	C297.598724,308.651306 300.211914,308.044647 302.825806,308.041626 
	C352.037384,307.985077 401.249146,307.966949 450.460480,308.091370 
	C453.097992,308.098053 455.732117,309.429382 458.367828,310.144043 
	C456.233337,316.450897 454.098846,322.757721 451.689880,329.314056 
z"/>
<path fill="#4993EE" opacity="1.000000" stroke="none" 
	d="
M458.606567,309.859253 
	C455.732117,309.429382 453.097992,308.098053 450.460480,308.091370 
	C401.249146,307.966949 352.037384,307.985077 302.825806,308.041626 
	C300.211914,308.044647 297.598724,308.651306 294.482178,308.584717 
	C293.383636,302.462433 292.788147,296.732422 292.192627,291.002411 
	C348.807617,291.001617 405.422577,291.000793 462.503723,291.000305 
	C461.595001,297.191864 460.220154,303.383179 458.606567,309.859253 
z"/>
<path fill="#E1EEF6" opacity="1.000000" stroke="none" 
	d="
M354.004669,439.077179 
	C353.795502,442.208740 355.526215,443.057709 358.334625,443.026276 
	C364.978790,442.951874 371.624603,443.022766 378.757690,443.065704 
	C374.948303,445.817017 370.651001,448.537506 366.147308,451.516510 
	C349.137848,458.426544 332.778992,466.713196 315.447998,471.421814 
	C264.306274,485.316345 213.979050,481.426971 165.402954,459.938049 
	C153.801651,454.805878 142.978363,447.914978 131.469757,441.683350 
	C130.136917,440.695709 129.131577,439.857697 127.933777,438.818054 
	C129.324997,438.077728 130.893417,437.135040 132.495178,437.074463 
	C137.729309,436.876556 142.977264,437.074005 148.216110,436.953827 
	C149.737137,436.918945 151.245407,436.328735 153.199554,435.673706 
	C155.761780,436.515289 157.883987,437.676270 160.327469,439.011292 
	C171.588547,443.787109 182.276291,449.158508 193.517548,452.839752 
	C222.071060,462.190308 251.451736,464.389252 281.293030,461.124237 
	C306.656982,458.349060 330.426697,450.542664 353.244293,438.904053 
	C353.663574,439.012939 353.834106,439.045044 354.004669,439.077179 
z"/>
<path fill="#4081EB" opacity="1.000000" stroke="none" 
	d="
M382.884949,420.020782 
	C382.017883,420.620850 381.150757,421.220917 379.706482,421.398621 
	C377.370117,420.317566 375.611603,419.085022 373.851562,419.082855 
	C295.908112,418.987274 217.964478,418.975800 140.021240,419.134308 
	C137.980957,419.138428 135.944733,421.137390 133.906631,422.206085 
	C126.880035,416.580383 119.842979,410.967651 112.833740,405.320404 
	C110.933205,403.789215 109.116776,402.153625 107.311737,399.899109 
	C109.186470,398.488159 111.008308,397.104004 112.836395,397.095703 
	C141.799316,396.963928 170.763046,397.008698 199.951508,397.281372 
	C207.468765,406.804932 216.696716,405.784454 223.625275,395.005127 
	C246.329483,395.005249 268.578308,395.007172 291.018280,395.297058 
	C296.332886,406.060303 307.575134,405.833435 314.254944,398.388245 
	C317.179230,398.378967 319.624786,398.037598 322.070831,398.033600 
	C347.350098,397.992279 372.630127,397.922974 397.907623,398.137939 
	C400.292084,398.158203 402.660492,400.061035 405.036377,401.089844 
	C399.561310,406.055664 394.086243,411.021484 388.033569,416.096283 
	C387.265350,416.477081 387.074677,416.748932 386.884033,417.020813 
	C386.105133,417.691528 385.326233,418.362213 384.001801,419.119202 
	C383.265839,419.477203 383.075409,419.748993 382.884949,420.020782 
z"/>
<path fill="#3E7EEB" opacity="1.000000" stroke="none" 
	d="
M134.072891,422.494873 
	C135.944733,421.137390 137.980957,419.138428 140.021240,419.134308 
	C217.964478,418.975800 295.908112,418.987274 373.851562,419.082855 
	C375.611603,419.085022 377.370117,420.317566 379.382080,421.389771 
	C379.634796,421.803314 379.631317,421.999939 379.386414,422.237183 
	C379.060333,422.638580 378.979156,422.802765 378.897949,422.966949 
	C378.116913,423.650055 377.335876,424.333160 376.012878,425.102325 
	C375.160980,425.360962 374.971497,425.621246 374.902435,425.969238 
	C372.799896,427.313232 370.697357,428.657227 368.023743,430.104919 
	C367.260345,430.479187 367.068024,430.749725 366.875702,431.020294 
	C365.770233,431.700104 364.664795,432.379913 363.017578,433.137024 
	C362.166870,433.377197 361.980377,433.630310 361.916260,433.973633 
	C359.457428,435.531738 356.998596,437.089844 354.272217,438.862549 
	C353.834106,439.045044 353.663574,439.012939 353.225525,438.500336 
	C351.188324,437.346588 349.420929,436.093140 347.648651,436.086273 
	C316.860046,435.966583 286.070892,436.000000 255.281830,436.000000 
	C225.491333,436.000000 195.700821,435.984528 165.910400,436.030273 
	C163.599686,436.033813 160.611847,435.056427 160.006195,438.837250 
	C157.883987,437.676270 155.761780,436.515289 153.313309,435.297150 
	C146.737747,431.087830 140.488449,426.935730 134.072891,422.494873 
z"/>
<path fill="#448AED" opacity="1.000000" stroke="none" 
	d="
M69.810181,346.743713 
	C71.760277,345.264191 73.760162,343.152924 75.769035,343.144287 
	C119.809776,342.955780 163.851517,342.994476 207.893021,343.031433 
	C209.166229,343.032501 210.439041,343.488098 211.966095,344.466980 
	C209.894028,353.154694 207.567917,361.107208 204.837585,368.903137 
	C202.649078,368.497711 200.864990,368.033752 199.080399,368.031708 
	C162.371323,367.989532 125.662140,367.981293 88.953140,368.048828 
	C86.864342,368.052673 84.776840,368.762695 82.688728,369.144012 
	C78.413864,361.793091 74.139000,354.442200 69.810181,346.743713 
z"/>
<path fill="#4285EC" opacity="1.000000" stroke="none" 
	d="
M82.784760,369.481628 
	C84.776840,368.762695 86.864342,368.052673 88.953140,368.048828 
	C125.662140,367.981293 162.371323,367.989532 199.080399,368.031708 
	C200.864990,368.033752 202.649078,368.497711 204.785461,369.277771 
	C204.747955,370.722382 204.261078,371.607391 203.984116,372.553802 
	C201.645599,380.544891 196.116592,387.987274 199.726593,397.013062 
	C170.763046,397.008698 141.799316,396.963928 112.836395,397.095703 
	C111.008308,397.104004 109.186470,398.488159 107.203316,399.575378 
	C98.990196,389.885406 90.935486,379.852325 82.784760,369.481628 
z"/>
<path fill="#4285EC" opacity="1.000000" stroke="none" 
	d="
M405.340088,400.942932 
	C402.660492,400.061035 400.292084,398.158203 397.907623,398.137939 
	C372.630127,397.922974 347.350098,397.992279 322.070831,398.033600 
	C319.624786,398.037598 317.179230,398.378967 314.442017,398.046509 
	C317.300659,389.998535 313.812714,383.539337 310.868561,376.650940 
	C310.632660,375.202698 310.364380,374.101074 310.469299,372.921082 
	C313.138184,372.228455 315.432159,371.086792 317.729919,371.079132 
	C352.107513,370.964722 386.485718,370.975800 420.863556,371.045624 
	C423.637848,371.051270 426.410858,371.702820 429.184448,372.054230 
	C421.337555,381.634827 413.490662,391.215454 405.340088,400.942932 
z"/>
<path fill="#4489ED" opacity="1.000000" stroke="none" 
	d="
M429.468597,371.881226 
	C426.410858,371.702820 423.637848,371.051270 420.863556,371.045624 
	C386.485718,370.975800 352.107513,370.964722 317.729919,371.079132 
	C315.432159,371.086792 313.138184,372.228455 310.251038,372.616669 
	C307.699890,365.726868 305.740143,359.063110 303.780396,352.399353 
	C305.838287,351.599670 307.893890,350.109100 309.954407,350.102295 
	C351.261200,349.965729 392.568665,349.962708 433.875458,350.101288 
	C436.142517,350.108887 438.404663,351.582306 440.843109,352.704590 
	C437.262329,359.259918 433.507538,365.484070 429.468597,371.881226 
z"/>
<path fill="#E1EEF6" opacity="1.000000" stroke="none" 
	d="
M387.100800,416.948853 
	C387.074677,416.748932 387.265350,416.477081 387.708984,416.228271 
	C387.815491,416.530182 387.600677,416.738678 387.100800,416.948853 
z"/>
<path fill="#E1EEF6" opacity="1.000000" stroke="none" 
	d="
M362.119110,433.922760 
	C361.980377,433.630310 362.166870,433.377197 362.710632,433.273682 
	C362.796448,433.580658 362.588593,433.760284 362.119110,433.922760 
z"/>
<path fill="#E1EEF6" opacity="1.000000" stroke="none" 
	d="
M367.088776,430.954590 
	C367.068024,430.749725 367.260345,430.479187 367.702637,430.254822 
	C367.798676,430.566681 367.581757,430.762604 367.088776,430.954590 
z"/>
<path fill="#E1EEF6" opacity="1.000000" stroke="none" 
	d="
M375.116638,425.910278 
	C374.971497,425.621246 375.160980,425.360962 375.716705,425.217407 
	C375.820862,425.519989 375.610291,425.721619 375.116638,425.910278 
z"/>
<path fill="#E1EEF6" opacity="1.000000" stroke="none" 
	d="
M379.058441,422.944672 
	C378.979156,422.802765 379.060333,422.638580 379.378510,422.335144 
	C379.704620,422.560333 379.572418,422.802490 379.058441,422.944672 
z"/>
<path fill="#E1EEF6" opacity="1.000000" stroke="none" 
	d="
M383.101562,419.948700 
	C383.075409,419.748993 383.265839,419.477203 383.709106,419.228455 
	C383.815582,419.530090 383.600983,419.738495 383.101562,419.948700 
z"/>
<path fill="#FBFDFE" opacity="1.000000" stroke="none" 
	d="
M223.498657,132.538208 
	C224.911499,125.029984 226.421478,117.989357 232.164551,112.404694 
	C246.012711,96.498962 275.024292,98.688210 286.527191,119.178238 
	C290.510162,127.735680 291.063110,136.329727 288.993408,145.574463 
	C284.242889,157.485764 276.241119,165.424896 263.825867,167.982742 
	C249.537537,170.926453 236.669861,165.179123 228.016266,152.282471 
	C226.357773,145.653931 224.907776,139.300064 223.498657,132.538208 
z"/>
<path fill="#F6FAFC" opacity="1.000000" stroke="none" 
	d="
M368.389465,195.659637 
	C364.933502,200.062698 360.562653,202.459229 355.137390,203.493423 
	C346.751007,205.092087 338.473785,207.263397 329.356018,209.012512 
	C324.502869,208.888794 320.444061,208.990173 316.385162,208.992538 
	C290.960236,209.007309 265.534546,209.119370 240.110657,208.957962 
	C223.203400,208.850647 206.299149,208.308823 189.392044,208.068420 
	C187.812012,208.045944 186.221039,208.794189 184.635162,209.184570 
	C179.363327,208.100159 174.091492,207.015732 168.416107,205.937256 
	C163.891953,204.818909 159.812637,203.500488 155.641556,202.613586 
	C148.503250,201.095703 144.187027,197.085953 143.171570,189.347443 
	C146.511932,178.151108 150.972992,176.000259 161.962753,178.085892 
	C179.602966,181.433670 197.394958,183.972748 215.074585,187.124161 
	C233.458282,190.401077 252.010757,190.468170 270.522888,189.836594 
	C282.638153,189.423248 294.759369,187.829742 306.769897,186.039902 
	C322.146210,183.748474 337.394470,180.610611 352.736084,178.068039 
	C361.200256,176.665253 366.812683,179.757446 369.761475,185.756256 
	C371.682922,189.665146 368.591431,192.126160 368.389465,195.659637 
z"/>
<path fill="#EEF6FA" opacity="1.000000" stroke="none" 
	d="
M292.103271,290.577576 
	C292.788147,296.732422 293.383636,302.462433 294.068970,308.597473 
	C294.412811,310.743713 294.666809,312.484955 294.476318,314.674255 
	C286.419342,315.414978 278.799530,315.593231 271.199432,316.079803 
	C269.266815,316.203522 267.396973,317.307098 265.337463,317.570251 
	C264.810577,314.090576 263.515045,311.662445 260.029327,311.820007 
	C255.916122,312.005920 250.800278,309.904358 248.378601,315.993408 
	C240.522552,315.997406 233.119598,316.157013 225.730560,315.906250 
	C223.429642,315.828156 221.166412,314.639465 218.885941,313.959198 
	C219.323578,310.582428 219.761200,307.205688 220.071960,303.415009 
	C220.515137,298.930847 221.085190,294.860596 221.758667,290.396240 
	C222.192490,284.960297 222.522873,279.918488 222.781464,274.439941 
	C222.837326,266.979034 222.964966,259.954865 223.027527,252.465820 
	C223.067673,249.948196 223.172913,247.895432 223.824890,245.419266 
	C246.401382,244.995087 268.431152,244.994293 290.460938,244.993515 
	C290.650848,253.020370 290.840729,261.047211 291.098267,269.538879 
	C291.448578,276.720062 291.731232,283.436432 292.103271,290.577576 
z"/>
<path fill="#F4F9FC" opacity="1.000000" stroke="none" 
	d="
M290.597900,244.750763 
	C268.431152,244.994293 246.401382,244.995087 223.944305,244.996964 
	C223.314102,239.636597 223.111221,234.275146 222.783295,228.459564 
	C220.763275,220.240982 214.950851,216.923904 207.886444,215.143463 
	C200.361176,213.246857 192.802017,211.484772 184.946411,209.424255 
	C186.221039,208.794189 187.812012,208.045944 189.392044,208.068420 
	C206.299149,208.308823 223.203400,208.850647 240.110657,208.957962 
	C265.534546,209.119370 290.960236,209.007309 316.385162,208.992538 
	C320.444061,208.990173 324.502869,208.888794 328.960510,209.009766 
	C321.885590,211.117798 314.298309,212.703796 306.980652,215.109894 
	C302.573792,216.558868 298.586578,219.284225 294.252838,221.729111 
	C289.049072,228.423141 291.198364,235.944717 290.888794,243.535370 
	C290.885864,244.168488 290.810364,244.338257 290.597900,244.750763 
z"/>
<path fill="#E6F1F8" opacity="1.000000" stroke="none" 
	d="
M218.574356,314.190430 
	C221.166412,314.639465 223.429642,315.828156 225.730560,315.906250 
	C233.119598,316.157013 240.522552,315.997406 248.396332,316.386719 
	C245.340042,329.857178 241.807587,342.937042 238.134811,356.371124 
	C233.052963,369.485901 228.111420,382.246399 223.169891,395.006927 
	C216.696716,405.784454 207.468765,406.804932 199.951508,397.281372 
	C196.116592,387.987274 201.645599,380.544891 203.984116,372.553802 
	C204.261078,371.607391 204.747955,370.722382 205.189667,369.434326 
	C207.567917,361.107208 209.894028,353.154694 212.233093,344.826050 
	C213.851929,337.236267 215.457794,330.022675 216.974060,322.405701 
	C217.343903,319.475464 217.803345,316.948547 218.574356,314.190430 
z"/>
<path fill="#E6F1F8" opacity="1.000000" stroke="none" 
	d="
M265.498291,317.960419 
	C267.396973,317.307098 269.266815,316.203522 271.199432,316.079803 
	C278.799530,315.593231 286.419342,315.414978 294.433960,315.057922 
	C295.569122,319.059082 296.302185,323.124542 297.102600,327.596588 
	C299.200623,335.945496 301.231262,343.887848 303.521118,352.114777 
	C305.740143,359.063110 307.699890,365.726868 309.877869,372.695038 
	C310.364380,374.101074 310.632660,375.202698 310.411682,376.651733 
	C301.162201,377.042725 292.401978,377.086304 283.422791,376.856812 
	C280.707367,369.728271 278.210846,362.872803 275.627991,355.665009 
	C272.193817,342.861938 268.846069,330.411194 265.498291,317.960419 
z"/>
<path fill="#3D7BEA" opacity="1.000000" stroke="none" 
	d="
M160.327469,439.011292 
	C160.611847,435.056427 163.599686,436.033813 165.910400,436.030273 
	C195.700821,435.984528 225.491333,436.000000 255.281830,436.000000 
	C286.070892,436.000000 316.860046,435.966583 347.648651,436.086273 
	C349.420929,436.093140 351.188324,437.346588 352.976776,438.423584 
	C330.426697,450.542664 306.656982,458.349060 281.293030,461.124237 
	C251.451736,464.389252 222.071060,462.190308 193.517548,452.839752 
	C182.276291,449.158508 171.588547,443.787109 160.327469,439.011292 
z"/>
<path fill="#4386EC" opacity="1.000000" stroke="none" 
	d="
M275.714355,356.017303 
	C278.210846,362.872803 280.707367,369.728271 283.498962,377.226929 
	C286.138428,383.583069 288.482788,389.296082 290.827118,395.009094 
	C268.578308,395.007172 246.329483,395.005249 223.625275,395.005127 
	C228.111420,382.246399 233.052963,369.485901 238.537079,356.352844 
	C251.291214,355.992645 263.502777,356.004974 275.714355,356.017303 
z"/>
<path fill="#E3EFF7" opacity="1.000000" stroke="none" 
	d="
M291.018280,395.297058 
	C288.482788,389.296082 286.138428,383.583069 283.717896,377.499969 
	C292.401978,377.086304 301.162201,377.042725 310.379333,376.998383 
	C313.812714,383.539337 317.300659,389.998535 313.963501,397.871002 
	C307.575134,405.833435 296.332886,406.060303 291.018280,395.297058 
z"/>
<path fill="#478EED" opacity="1.000000" stroke="none" 
	d="
M275.627991,355.665009 
	C263.502777,356.004974 251.291214,355.992645 238.677368,355.998596 
	C241.807587,342.937042 245.340042,329.857178 248.854767,316.384033 
	C250.800278,309.904358 255.916122,312.005920 260.029327,311.820007 
	C263.515045,311.662445 264.810577,314.090576 265.337463,317.570251 
	C268.846069,330.411194 272.193817,342.861938 275.627991,355.665009 
z"/>
</svg>