<svg width="800" height="600" viewBox="0 0 800 600" fill="none" xmlns="http://www.w3.org/2000/svg">
  <!-- Background Glow -->
  <circle cx="400" cy="300" r="300" fill="url(#paint0_radial)" fill-opacity="0.4"/>
  
  <!-- Main Browser Window Mockup -->
  <rect x="100" y="100" width="600" height="400" rx="20" fill="white" stroke="#E2E8F0" stroke-width="2"/>
  <rect x="100" y="100" width="600" height="40" rx="20" fill="#F8FAFC"/>
  <path d="M100 140H700" stroke="#E2E8F0" stroke-width="2"/>
  
  <!-- Browser Dots -->
  <circle cx="130" cy="120" r="5" fill="#FF5F56"/>
  <circle cx="150" cy="120" r="5" fill="#FFBD2E"/>
  <circle cx="170" cy="120" r="5" fill="#27C93F"/>
  
  <!-- Abstract Content Lines -->
  <rect x="140" y="180" width="120" height="120" rx="12" fill="#F1F5F9"/>
  <rect x="280" y="180" width="380" height="20" rx="4" fill="#F1F5F9"/>
  <rect x="280" y="220" width="300" height="20" rx="4" fill="#F1F5F9"/>
  <rect x="280" y="260" width="340" height="20" rx="4" fill="#F1F5F9"/>
  
  <rect x="140" y="340" width="520" height="20" rx="4" fill="#F1F5F9"/>
  <rect x="140" y="380" width="480" height="20" rx="4" fill="#F1F5F9"/>
  <rect x="140" y="420" width="300" height="20" rx="4" fill="#F1F5F9"/>

  <!-- The Widget Mockup -->
  <g filter="url(#filter0_d)">
    <rect x="580" y="350" width="80" height="80" rx="40" fill="url(#paint1_linear)"/>
    
    <!-- Modern Apple-style Accessibility Figure -->
    <g transform="translate(620, 390)">
      <!-- Head -->
      <circle cx="0" cy="-18" r="6.5" fill="white"/>
      <!-- Arms (Wide and curved) -->
      <path d="M-22 -2C-22 -2 -10 -9 0 -9C10 -9 22 -2 22 -2" stroke="white" stroke-width="5" stroke-linecap="round"/>
      <!-- Torso -->
      <path d="M0 -9V10" stroke="white" stroke-width="5" stroke-linecap="round"/>
      <!-- Legs (Balanced wide stance) -->
      <path d="M-14 24L0 10L14 24" stroke="white" stroke-width="5" stroke-linecap="round"/>
    </g>
  </g>

  <!-- Definition of Gradients and Filters -->
  <defs>
    <radialGradient id="paint0_radial" cx="0" cy="0" r="1" gradientUnits="userSpaceOnUse" transform="translate(400 300) rotate(90) scale(300)">
      <stop stop-color="#2563EB"/>
      <stop offset="1" stop-color="#2563EB" stop-opacity="0"/>
    </radialGradient>
    <linearGradient id="paint1_linear" x1="580" y1="350" x2="660" y2="430" gradientUnits="userSpaceOnUse">
      <stop stop-color="#2563EB"/>
      <stop offset="1" stop-color="#06B6D4"/>
    </linearGradient>
    <filter id="filter0_d" x="560" y="335" width="120" height="120" filterUnits="userSpaceOnUse" color-interpolation-filters="sRGB">
      <feFlood flood-opacity="0" result="BackgroundImageFix"/>
      <feColorMatrix in="SourceAlpha" type="matrix" values="0 0 0 0 0 0 0 0 0 0 0 0 0 0 0 0 0 0 127 0" result="hardAlpha"/>
      <feOffset dy="5"/>
      <feGaussianBlur stdDeviation="7.5"/>
      <feComposite in2="hardAlpha" operator="out"/>
      <feColorMatrix type="matrix" values="0 0 0 0 0.145098 0 0 0 0 0.388235 0 0 0 0 0.921569 0 0 0 0.3 0"/>
      <feBlend mode="normal" in2="BackgroundImageFix" result="effect1_dropShadow"/>
      <feBlend mode="normal" in="SourceGraphic" in2="effect1_dropShadow" result="shape"/>
    </filter>
  </defs>
</svg>
