<svg xmlns="http://www.w3.org/2000/svg" viewBox="0 0 1200 800" fill="none">
  <defs>
    <linearGradient id="g1" x1="180" y1="120" x2="1020" y2="720" gradientUnits="userSpaceOnUse">
      <stop stop-color="#2563EB" stop-opacity="0.14"/>
      <stop offset="1" stop-color="#06B6D4" stop-opacity="0.10"/>
    </linearGradient>
    <radialGradient id="g2" cx="0" cy="0" r="1" gradientUnits="userSpaceOnUse" gradientTransform="translate(820 250) rotate(90) scale(280)">
      <stop stop-color="#3B82F6" stop-opacity="0.26"/>
      <stop offset="1" stop-color="#3B82F6" stop-opacity="0"/>
    </radialGradient>
    <radialGradient id="g3" cx="0" cy="0" r="1" gradientUnits="userSpaceOnUse" gradientTransform="translate(360 560) rotate(90) scale(320)">
      <stop stop-color="#06B6D4" stop-opacity="0.18"/>
      <stop offset="1" stop-color="#06B6D4" stop-opacity="0"/>
    </radialGradient>
    <filter id="shadow" x="-20%" y="-20%" width="140%" height="140%">
      <feDropShadow dx="0" dy="24" stdDeviation="22" flood-color="#020617" flood-opacity="0.14"/>
      <feDropShadow dx="0" dy="10" stdDeviation="10" flood-color="#020617" flood-opacity="0.08"/>
    </filter>
    <filter id="softShadow" x="-20%" y="-20%" width="140%" height="140%">
      <feDropShadow dx="0" dy="16" stdDeviation="16" flood-color="#020617" flood-opacity="0.10"/>
    </filter>
  </defs>

  <!-- background glows -->
  <rect x="0" y="0" width="1200" height="800" rx="48" fill="url(#g1)"/>
  <circle cx="820" cy="250" r="280" fill="url(#g2)"/>
  <circle cx="360" cy="560" r="320" fill="url(#g3)"/>

  <!-- main panel -->
  <g filter="url(#shadow)">
    <rect x="140" y="130" width="920" height="540" rx="34" fill="#FFFFFF" stroke="#E2E8F0" stroke-width="2"/>

    <!-- header -->
    <rect x="170" y="160" width="860" height="72" rx="18" fill="#F8FAFC"/>
    <circle cx="210" cy="196" r="16" fill="#2563EB" fill-opacity="0.16"/>
    <path d="M206 196c0-3 2.4-5.4 5.4-5.4h3.2v-3.2c0-3 2.4-5.4 5.4-5.4 3 0 5.4 2.4 5.4 5.4v3.2h3.2c3 0 5.4 2.4 5.4 5.4 0 3-2.4 5.4-5.4 5.4h-3.2v3.2c0 3-2.4 5.4-5.4 5.4-3 0-5.4-2.4-5.4-5.4v-3.2h-3.2c-3 0-5.4-2.4-5.4-5.4z" fill="#2563EB" fill-opacity="0.55"/>
    <rect x="250" y="184" width="220" height="12" rx="6" fill="#0F172A" fill-opacity="0.72"/>
    <rect x="250" y="204" width="160" height="10" rx="5" fill="#64748B" fill-opacity="0.65"/>

    <!-- content columns -->
    <rect x="170" y="252" width="520" height="388" rx="22" fill="#FFFFFF"/>
    <rect x="170" y="252" width="520" height="388" rx="22" stroke="#EEF2F7" stroke-width="2"/>

    <!-- left: text tools -->
    <rect x="200" y="285" width="460" height="64" rx="18" fill="#F8FAFC"/>
    <rect x="232" y="309" width="190" height="12" rx="6" fill="#0F172A" fill-opacity="0.72"/>
    <rect x="232" y="329" width="140" height="10" rx="5" fill="#64748B" fill-opacity="0.65"/>
    <circle cx="620" cy="317" r="18" fill="#2563EB" fill-opacity="0.14"/>
    <path d="M612 317h16" stroke="#2563EB" stroke-width="3" stroke-linecap="round"/>
    <path d="M620 309v16" stroke="#2563EB" stroke-width="3" stroke-linecap="round"/>

    <rect x="200" y="365" width="460" height="94" rx="18" fill="#F8FAFC"/>
    <rect x="232" y="390" width="210" height="12" rx="6" fill="#0F172A" fill-opacity="0.72"/>
    <rect x="232" y="410" width="300" height="10" rx="5" fill="#64748B" fill-opacity="0.65"/>
    <rect x="232" y="428" width="250" height="10" rx="5" fill="#64748B" fill-opacity="0.55"/>
    <rect x="572" y="392" width="70" height="16" rx="8" fill="#06B6D4" fill-opacity="0.18"/>
    <rect x="582" y="396" width="50" height="8" rx="4" fill="#06B6D4" fill-opacity="0.55"/>

    <rect x="200" y="477" width="460" height="140" rx="18" fill="#F8FAFC"/>
    <rect x="232" y="505" width="220" height="12" rx="6" fill="#0F172A" fill-opacity="0.72"/>
    <rect x="232" y="527" width="310" height="10" rx="5" fill="#64748B" fill-opacity="0.65"/>
    <rect x="232" y="545" width="280" height="10" rx="5" fill="#64748B" fill-opacity="0.55"/>
    <rect x="232" y="563" width="240" height="10" rx="5" fill="#64748B" fill-opacity="0.45"/>

    <!-- right: widget panel -->
    <g filter="url(#softShadow)">
      <rect x="720" y="252" width="310" height="388" rx="26" fill="rgba(255,255,255,0.92)" stroke="#E2E8F0" stroke-width="2"/>

      <!-- widget top -->
      <rect x="748" y="280" width="254" height="54" rx="16" fill="#F8FAFC"/>
      <circle cx="776" cy="307" r="13" fill="#2563EB" fill-opacity="0.16"/>
      <path d="M772 307c0-2 1.6-3.6 3.6-3.6h2.1v-2.1c0-2 1.6-3.6 3.6-3.6 2 0 3.6 1.6 3.6 3.6v2.1h2.1c2 0 3.6 1.6 3.6 3.6s-1.6 3.6-3.6 3.6h-2.1v2.1c0 2-1.6 3.6-3.6 3.6-2 0-3.6-1.6-3.6-3.6v-2.1h-2.1c-2 0-3.6-1.6-3.6-3.6z" fill="#2563EB" fill-opacity="0.55"/>
      <rect x="798" y="298" width="120" height="10" rx="5" fill="#0F172A" fill-opacity="0.72"/>
      <rect x="798" y="314" width="84" height="8" rx="4" fill="#64748B" fill-opacity="0.65"/>

      <!-- switches -->
      <rect x="748" y="352" width="254" height="64" rx="18" fill="#FFFFFF"/>
      <rect x="760" y="364" width="170" height="10" rx="5" fill="#0F172A" fill-opacity="0.70"/>
      <rect x="760" y="382" width="130" height="8" rx="4" fill="#64748B" fill-opacity="0.62"/>
      <rect x="938" y="366" width="54" height="28" rx="14" fill="#2563EB" fill-opacity="0.18"/>
      <circle cx="976" cy="380" r="12" fill="#2563EB"/>

      <rect x="748" y="428" width="254" height="64" rx="18" fill="#FFFFFF"/>
      <rect x="760" y="440" width="158" height="10" rx="5" fill="#0F172A" fill-opacity="0.70"/>
      <rect x="760" y="458" width="118" height="8" rx="4" fill="#64748B" fill-opacity="0.62"/>
      <rect x="938" y="442" width="54" height="28" rx="14" fill="#E2E8F0"/>
      <circle cx="954" cy="456" r="12" fill="#FFFFFF" stroke="#CBD5E1" stroke-width="2"/>

      <rect x="748" y="504" width="254" height="84" rx="18" fill="#FFFFFF"/>
      <rect x="760" y="516" width="194" height="10" rx="5" fill="#0F172A" fill-opacity="0.70"/>
      <rect x="760" y="534" width="168" height="8" rx="4" fill="#64748B" fill-opacity="0.62"/>
      <rect x="760" y="550" width="132" height="8" rx="4" fill="#64748B" fill-opacity="0.52"/>
      <rect x="760" y="568" width="86" height="10" rx="5" fill="#06B6D4" fill-opacity="0.18"/>
      <rect x="772" y="570" width="62" height="6" rx="3" fill="#06B6D4" fill-opacity="0.62"/>
    </g>
  </g>
</svg>

